<svg xmlns="http://www.w3.org/2000/svg" width="207.796" height="58" viewBox="0 0 207.796 58"><path d="M101.624 46.253V9.715h19.939v8.217h-11.011v6.19h10.628v8.217h-10.628v13.915h-8.928zm62.568 0V9.715h9.311v36.538h-9.311zM145.929 9.716l-29.135 36.537h12.075l19.82-24.857v24.857h9.312V9.715zm51.951 24.102c5.534-.931 9.093-5.424 9.093-11.449 0-4-1.698-7.67-4.491-10.024-2.464-2.028-5.039-2.63-11.229-2.63h-11.558v8.217h12.324c3.835 0 5.971 1.754 5.971 4.984 0 3.232-2.191 5.15-6.079 5.15l-12.215-.001v6.356h8.93l8.489 11.832h10.682l-9.917-12.435z" fill="#00518E"/><path fill="#EFC700" d="M41.184 25.988H18.208v7.911h11.517c-.93 3.839-4.188 6.225-8.55 6.225-6.807 0-11.285-4.828-11.285-12.043 0-6.223 4.537-10.878 10.588-10.878 3.663 0 6.746 1.805 8.491 5.061H40.08C37.87 14.296 29.61 8.478 20.767 8.478 9.017 8.478 0 17.203 0 28.488c0 11.344 9.017 20.303 20.534 20.303 11.809 0 20.767-8.959 20.767-20.826 0-.639-.058-1.047-.117-1.977zm16.108-7.562c-1.127 3.378-1.697 7.187-1.715 10.947 3.319.222 6.397.354 9.433.396V18.812a119.486 119.486 0 0 1-7.718-.386zm10.646-9.791c-.227-.021-.457-.035-.686-.049v8.779c2.294-.016 4.627-.113 7.221-.298-1.453-3.691-3.628-6.738-6.535-8.432zm-3.548-.044c-2.924 1.676-5.114 4.716-6.58 8.408 2.603.202 4.921.319 7.2.355V8.557c-.208.008-.414.02-.62.034zm12.288 20.903c-.005-3.773-.566-7.601-1.689-10.997-2.783.202-5.273.308-7.736.324v10.962a165.85 165.85 0 0 0 9.425-.289zM68.37 48.703c2.49-1.143 4.569-3.554 6.028-6.906-2.333.096-4.719.145-7.146.154v6.85c.376-.024.748-.056 1.118-.098zm8.91-30.386c1.134 3.454 1.691 7.279 1.704 11.033 2.34-.159 4.801-.359 7.467-.605v-.022c0-4.086-1.175-7.843-3.212-10.983-2.168.229-4.132.421-5.959.577zM55.601 30.84c.047 1.422.173 2.829.38 4.191a28.96 28.96 0 0 0 1.291 5.262c2.609.113 5.188.173 7.739.192v-9.257a179.944 179.944 0 0 1-9.41-.388zm8.425 17.929c.325.027.654.047.984.06v-6.886c-2.363-.018-4.748-.07-7.159-.168 1.486 3.428 3.618 5.876 6.175 6.994zm10.953-8.459a28.777 28.777 0 0 0 1.298-5.281c.201-1.325.326-2.691.376-4.074-3.275.185-6.355.283-9.401.286v9.251c2.631-.01 5.211-.068 7.727-.182zm11.413-10.089c-2.632.238-5.087.435-7.432.592a36.881 36.881 0 0 1-.383 4.3 30.42 30.42 0 0 1-1.198 5.061c1.971-.117 3.918-.256 5.813-.437a19.859 19.859 0 0 0 3.2-9.516zm-31.515 9.947a30.425 30.425 0 0 1-1.194-5.051 37.31 37.31 0 0 1-.387-4.441c-2.427-.184-4.988-.41-7.76-.68.208 3.618 1.338 6.945 3.17 9.764 2.072.168 4.127.298 6.171.408zm21.892-23.279c1.691-.142 3.505-.317 5.493-.525-2.554-3.284-6.128-5.743-10.308-6.964 2.082 1.942 3.671 4.547 4.815 7.489zM55.429 41.66a246.491 246.491 0 0 1-5.603-.347c2.465 3.088 5.845 5.413 9.785 6.616-1.709-1.551-3.123-3.671-4.182-6.269zm.096-24.855c1.182-3.011 2.835-5.663 5.006-7.608-4.4 1.119-8.151 3.609-10.809 7.019 2.123.234 4.034.429 5.803.589zm21.303 24.867c-1.004 2.459-2.327 4.487-3.916 6.011a20.176 20.176 0 0 0 9.126-6.367c-1.704.145-3.448.258-5.21.356zM48.745 17.587c-2.018 3.109-3.193 6.845-3.241 10.932 2.783.273 5.349.502 7.773.687.028-3.74.593-7.543 1.732-10.976a308.703 308.703 0 0 1-6.264-.643z"/><path fill="#EFC700" d="M65.813 0c-10.761 0-19.895 5.329-24.98 13.583a22.311 22.311 0 0 1 2.481 4.056c4.078-8.16 12.474-13.565 22.522-13.565 14.318 0 25.462 10.933 25.462 24.955 0 13.962-11.143 24.899-25.462 24.899-10.178 0-18.721-5.601-22.729-13.925a24.65 24.65 0 0 1-2.562 3.976C45.581 52.447 54.884 58 65.813 58c16.657 0 29.622-12.725 29.622-28.967C95.434 12.72 82.47 0 65.813 0z"/></svg>